<svg width="0" height="0" class="hidden">
  <symbol xmlns="http://www.w3.org/2000/svg" viewBox="0 0 19 18" id="whatsapp">
    <path d="M9.53819 0C4.32513 0 0.0763821 4.005 0.0763821 8.919C0.0763821 10.494 0.515578 12.024 1.33668 13.374L0 18L5.01256 16.758C6.39698 17.469 7.95327 17.847 9.53819 17.847C14.7513 17.847 19 13.842 19 8.928C19 6.543 18.0166 4.302 16.2312 2.619C14.4457 0.927 12.0683 0 9.53819 0ZM9.54774 1.503C11.6482 1.503 13.6151 2.277 15.1045 3.681C16.5844 5.085 17.4055 6.948 17.4055 8.928C17.4055 13.014 13.8729 16.335 9.53819 16.335C8.12512 16.335 6.7407 15.984 5.53769 15.3L5.25126 15.147L2.27236 15.885L3.06482 13.149L2.87387 12.861C2.09095 11.7 1.67085 10.323 1.67085 8.919C1.6804 4.833 5.20352 1.503 9.54774 1.503ZM6.18693 4.797C6.03417 4.797 5.77638 4.851 5.55678 5.076C5.34673 5.301 4.72613 5.85 4.72613 6.939C4.72613 8.037 5.57588 9.09 5.6809 9.243C5.81457 9.396 7.36131 11.646 9.73869 12.6C10.302 12.843 10.7412 12.978 11.0849 13.077C11.6482 13.248 12.1638 13.221 12.5744 13.167C13.0327 13.104 13.9683 12.627 14.1688 12.105C14.3693 11.583 14.3693 11.142 14.3121 11.043C14.2452 10.953 14.0925 10.899 13.8538 10.8C13.6151 10.674 12.4502 10.134 12.2402 10.062C12.0206 9.99 11.8869 9.954 11.7055 10.17C11.5528 10.395 11.0945 10.899 10.9608 11.043C10.8176 11.196 10.6839 11.214 10.4548 11.106C10.2065 10.989 9.44271 10.755 8.54523 9.999C7.83869 9.405 7.37085 8.676 7.22764 8.451C7.11306 8.235 7.21809 8.1 7.33266 8.001C7.43769 7.902 7.59045 7.74 7.68593 7.605C7.81005 7.479 7.84824 7.38 7.92462 7.236C8.001 7.083 7.96281 6.957 7.90553 6.849C7.84824 6.75 7.37085 5.634 7.17035 5.193C6.9794 4.761 6.78844 4.815 6.63568 4.806C6.50201 4.806 6.34925 4.797 6.18693 4.797Z" ></path>
  </symbol>
  <symbol xmlns="http://www.w3.org/2000/svg" viewBox="0 0 39 5" id="arrow-left">
    <path d="M3.53333 4L1 2.5L3.53333 1V2.5V4Z"></path>
    <path d="M39 2.5L1 2.5M1 2.5L3.53333 4V2.5V1L1 2.5Z" stroke="#ABB2B4"></path>
  </symbol>
  <symbol xmlns="http://www.w3.org/2000/svg" viewBox="0 0 39 5" id="arrow-right">
    <path d="M35.4667 1L38 2.5L35.4667 4V2.5V1Z"></path>
    <path d="M0 2.5H38M38 2.5L35.4667 1V2.5V4L38 2.5Z" ></path>
  </symbol>
  <symbol xmlns="http://www.w3.org/2000/svg" viewBox="0 0 7 23" id="arrow-up">
    <path d="M2 2.46667L3.5 1L5 2.46667H3.5H2Z"></path>
    <path d="M3.5 23L3.5 1M3.5 1L2 2.46667H3.5H5L3.5 1Z" ></path>
  </symbol>
  <symbol xmlns="http://www.w3.org/2000/svg" viewBox="0 0 20 14" id="burger">
    <path d="M1 1H19"  stroke-width="2" stroke-linecap="round" stroke-linejoin="round"></path>
    <path d="M1 6.5H19"  stroke-width="2" stroke-linecap="round" stroke-linejoin="round"></path>
    <path d="M1 12.5H19"  stroke-width="2" stroke-linecap="round" stroke-linejoin="round"></path>
  </symbol>
  <symbol xmlns="http://www.w3.org/2000/svg" viewBox="0 0 24 29" id="cart">
    <path fill-rule="evenodd" clip-rule="evenodd" d="M9.981 0.407556C9.07725 0.778931 7.773 1.97275 7.08225 3.05902C6.25275 4.3658 5.14575 5.03505 3.81375 5.03505C0.332999 5.03505 0 6.0927 0 17.1551C0 26.5098 0.12825 27.4886 1.4505 28.219C3.3375 29.2603 20.6625 29.2603 22.5495 28.219C23.8718 27.4886 24 26.5098 24 17.1551C24 6.18864 23.652 5.03505 20.3423 5.03505C19.2285 5.03505 17.7113 4.12905 16.5548 2.77275C14.3348 0.169256 12.3217 -0.554926 9.981 0.407556ZM14.25 3.8745C15.0548 4.8749 14.745 5.03505 12 5.03505C9.255 5.03505 8.94525 4.8749 9.75 3.8745C10.2638 3.2362 11.2762 2.71395 12 2.71395C12.7238 2.71395 13.7362 3.2362 14.25 3.8745ZM21.5865 16.834L21.7972 25.9249H12.024H2.25V17.1566C2.25 12.3334 2.48475 8.14532 2.772 7.84899C3.05925 7.55344 7.362 7.40799 12.3345 7.52714L21.375 7.743L21.5865 16.834Z"></path>
  </symbol>
  <symbol xmlns="http://www.w3.org/2000/svg" viewBox="0 0 23 23" id="clock">
    <path fill-rule="evenodd" clip-rule="evenodd" d="M9.76897 0.0876979C7.0716 0.540779 4.90998 1.69642 3.04616 3.68173C1.59802 5.22424 0.631936 7.10367 0.167535 9.28201C-0.0576531 10.3383 -0.0554341 12.6695 0.171796 13.7149C0.699928 16.1452 1.6479 17.8948 3.37538 19.6274C5.08555 21.3427 6.8788 22.3126 9.31105 22.8379C10.3251 23.0568 12.6735 23.0534 13.7189 22.8314C16.0917 22.3274 17.9008 21.3455 19.6273 19.6244C21.3376 17.9196 22.3242 16.1018 22.8321 13.7196C23.0537 12.6803 23.0565 10.3319 22.8373 9.31227C22.3163 6.88844 21.3451 5.09174 19.6273 3.3742C17.94 1.68711 16.1127 0.686511 13.8076 0.187544C12.8948 -0.0100185 10.6774 -0.0648675 9.76897 0.0876979ZM13.7349 2.21678C15.5055 2.66587 17.0113 3.51061 18.2511 4.75022C19.4861 5.98512 20.3187 7.46569 20.7957 9.27544C20.9889 10.0086 21.0196 10.3138 21.0196 11.5008C21.0196 12.6879 20.9889 12.993 20.7957 13.7262C20.1494 16.1782 18.758 18.1566 16.7556 19.4714C12.3424 22.369 6.47796 21.1727 3.54572 16.7768C2.92669 15.8486 2.52158 14.9288 2.20249 13.7262C2.00668 12.9884 1.9773 12.6953 1.97872 11.5008C1.98023 10.3178 2.01183 10.0061 2.20426 9.27544C2.68056 7.46649 3.51341 5.9853 4.74852 4.75022C7.09698 2.40201 10.5866 1.41827 13.7349 2.21678ZM11.7593 5.19256L11.4998 5.45198V8.4764V11.5008H9.36511C7.01967 11.5008 6.82324 11.5377 6.6253 12.0155C6.49021 12.3416 6.57196 12.6692 6.85457 12.9346L7.07612 13.1427H9.86297H12.6497L12.8959 12.8966L13.1419 12.6506V9.00607V5.36154L12.8929 5.1473C12.5367 4.84101 12.0932 4.85867 11.7593 5.19256Z" ></path>
  </symbol>
  <symbol xmlns="http://www.w3.org/2000/svg" viewBox="0 0 19 18" id="instagram">
    <path d="M5.51 0H13.49C16.53 0 19 2.34 19 5.22V12.78C19 14.1644 18.4195 15.4922 17.3862 16.4711C16.3528 17.45 14.9513 18 13.49 18H5.51C2.47 18 0 15.66 0 12.78V5.22C0 3.83557 0.580516 2.50784 1.61384 1.5289C2.64717 0.549963 4.04866 0 5.51 0ZM5.32 1.8C4.41296 1.8 3.54307 2.14136 2.90169 2.74897C2.26032 3.35659 1.9 4.1807 1.9 5.04V12.96C1.9 14.751 3.4295 16.2 5.32 16.2H13.68C14.587 16.2 15.4569 15.8586 16.0983 15.251C16.7397 14.6434 17.1 13.8193 17.1 12.96V5.04C17.1 3.249 15.5705 1.8 13.68 1.8H5.32ZM14.4875 3.15C14.8024 3.15 15.1045 3.26853 15.3272 3.4795C15.5499 3.69048 15.675 3.97663 15.675 4.275C15.675 4.57337 15.5499 4.85952 15.3272 5.0705C15.1045 5.28147 14.8024 5.4 14.4875 5.4C14.1726 5.4 13.8705 5.28147 13.6478 5.0705C13.4251 4.85952 13.3 4.57337 13.3 4.275C13.3 3.97663 13.4251 3.69048 13.6478 3.4795C13.8705 3.26853 14.1726 3.15 14.4875 3.15ZM9.5 4.5C10.7598 4.5 11.968 4.97411 12.8588 5.81802C13.7496 6.66193 14.25 7.80653 14.25 9C14.25 10.1935 13.7496 11.3381 12.8588 12.182C11.968 13.0259 10.7598 13.5 9.5 13.5C8.24022 13.5 7.03204 13.0259 6.14124 12.182C5.25044 11.3381 4.75 10.1935 4.75 9C4.75 7.80653 5.25044 6.66193 6.14124 5.81802C7.03204 4.97411 8.24022 4.5 9.5 4.5ZM9.5 6.3C8.74413 6.3 8.01922 6.58446 7.48475 7.09081C6.95027 7.59716 6.65 8.28392 6.65 9C6.65 9.71608 6.95027 10.4028 7.48475 10.9092C8.01922 11.4155 8.74413 11.7 9.5 11.7C10.2559 11.7 10.9808 11.4155 11.5153 10.9092C12.0497 10.4028 12.35 9.71608 12.35 9C12.35 8.28392 12.0497 7.59716 11.5153 7.09081C10.9808 6.58446 10.2559 6.3 9.5 6.3Z" ></path>
  </symbol>
  <symbol xmlns="http://www.w3.org/2000/svg" viewBox="0 0 19 19" id="phone">
    <path fill-rule="evenodd" clip-rule="evenodd" d="M3.00228 0.0186405C2.6845 0.0564829 2.3267 0.179465 2.06167 0.341946C1.93821 0.41763 1.74556 0.597408 1.11624 1.22422C0.262882 2.07413 0.256246 2.08226 0.131424 2.43236C0.00724182 2.7807 -0.00929648 2.88963 0.00368608 3.27375C0.0324214 4.12296 0.0514817 4.40161 0.119909 4.97204C0.50736 8.2022 1.89937 11.2731 4.08238 13.7137C4.42573 14.0975 5.15172 14.8112 5.52437 15.1312C7.94688 17.2113 10.8507 18.5008 14.0002 18.8949C14.6468 18.9758 14.9868 18.9973 15.6437 18.9987L16.2536 19L16.4603 18.9303C16.9289 18.7725 16.8914 18.8009 17.728 17.9681C18.141 17.557 18.5212 17.1648 18.5728 17.0965C18.7577 16.852 18.9143 16.4762 18.9736 16.1344C19.0086 15.9326 19.0089 15.5163 18.9741 15.3585C18.9285 15.1515 18.8102 14.8095 18.7236 14.6344C18.4675 14.1166 17.8494 13.5558 17.3399 13.3791C17.2768 13.3572 16.6298 13.1746 15.9021 12.9733L14.5791 12.6073L14.1863 12.6086C13.8317 12.6097 13.7743 12.615 13.5954 12.6631C13.3342 12.7334 13.1099 12.8247 12.9057 12.9439C12.768 13.0243 12.6459 13.1334 12.2005 13.574C11.9043 13.867 11.652 14.1068 11.64 14.1068C11.5905 14.1068 10.8254 13.8482 10.5624 13.7427C10.2107 13.6014 9.61326 13.3062 9.29328 13.1156C7.18695 11.8604 5.65155 9.88778 4.96342 7.55269L4.90688 7.36087L5.42419 6.83888C5.96677 6.29141 6.01707 6.23085 6.15244 5.96217C6.35278 5.56453 6.43332 5.19216 6.41806 4.7341C6.40723 4.40916 6.42672 4.4941 6.05225 3.14096C6.01918 3.02147 5.91617 2.64439 5.82334 2.303C5.7305 1.96162 5.62296 1.61354 5.58437 1.52954C5.47929 1.30081 5.30334 1.04961 5.09667 0.833235C4.75255 0.472997 4.45772 0.283372 4.01023 0.134526C3.61991 0.00469529 3.36534 -0.0245813 3.00228 0.0186405Z" ></path>
  </symbol>
  <symbol xmlns="http://www.w3.org/2000/svg" viewBox="0 0 27 27" id="profile">
    <path fill-rule="evenodd" clip-rule="evenodd" d="M10.283 0.735942C1.27932 4.493 3.90944 17.7903 13.6572 17.7903C17.689 17.7903 20.7265 15.578 22.1368 11.6144C24.7066 4.39091 17.4611 -2.25934 10.283 0.735942ZM18.0154 4.36185C20.4398 6.61498 20.4922 10.9116 18.1265 13.4027C14.3926 17.3325 7.14706 14.3859 7.14706 8.93723C7.14706 3.57572 14.0432 0.67233 18.0154 4.36185ZM8.33823 19.8809C3.19474 21.1194 0 23.5704 0 26.2791C0 27.4445 2.17191 27.1044 2.65394 25.8628C3.49968 23.6827 7.84429 22.2134 13.496 22.1961C19.332 22.1772 24.6176 23.9435 24.6176 25.9115C24.6176 26.5099 25.1537 27 25.8088 27C26.464 27 27 26.3191 27 25.4867C27 21.2537 16.1603 17.9977 8.33823 19.8809Z"></path>
  </symbol>
  <symbol xmlns="http://www.w3.org/2000/svg" viewBox="0 0 21 18" id="telegram">
    <path d="M7.9002 16.911L8.22644 11.8767L17.1747 3.64075C17.5709 3.2718 17.0932 3.09328 16.5688 3.41462L5.52332 10.5437L0.746239 8.99647C-0.279085 8.69893 -0.290736 7.97293 0.979267 7.44926L19.5866 0.117885C20.4371 -0.274868 21.2527 0.332114 20.9265 1.66509L17.7573 16.911C17.5359 17.9941 16.8951 18.2559 16.0096 17.756L11.1859 14.1141L8.86727 16.4112C8.59929 16.6849 8.37791 16.911 7.9002 16.911Z" ></path>
  </symbol>
  <symbol xmlns="http://www.w3.org/2000/svg" viewBox="0 0 24 24" id="search">
    <path d="M23.9279 22.2749L16.1369 14.4839C17.3459 12.9209 17.9999 11.01 17.9999 8.99996C17.9999 6.59397 17.0609 4.33798 15.3629 2.63699C13.6649 0.935996 11.403 0 8.99996 0C6.59697 0 4.33498 0.938996 2.63699 2.63699C0.935996 4.33498 0 6.59397 0 8.99996C0 11.403 0.938996 13.6649 2.63699 15.3629C4.33498 17.0639 6.59397 17.9999 8.99996 17.9999C11.01 17.9999 12.9179 17.3459 14.4809 16.1399L22.2719 23.9279C22.2947 23.9508 22.3219 23.9689 22.3517 23.9813C22.3816 23.9936 22.4136 24 22.4459 24C22.4782 24 22.5102 23.9936 22.5401 23.9813C22.5699 23.9689 22.5971 23.9508 22.6199 23.9279L23.9279 22.6229C23.9508 22.6001 23.9689 22.5729 23.9813 22.5431C23.9936 22.5132 24 22.4812 24 22.4489C24 22.4166 23.9936 22.3846 23.9813 22.3547C23.9689 22.3249 23.9508 22.2977 23.9279 22.2749ZM13.7519 13.7519C12.4799 15.0209 10.794 15.7199 8.99996 15.7199C7.20597 15.7199 5.51998 15.0209 4.24798 13.7519C2.97899 12.4799 2.27999 10.794 2.27999 8.99996C2.27999 7.20597 2.97899 5.51698 4.24798 4.24798C5.51998 2.97899 7.20597 2.27999 8.99996 2.27999C10.794 2.27999 12.4829 2.97599 13.7519 4.24798C15.0209 5.51998 15.7199 7.20597 15.7199 8.99996C15.7199 10.794 15.0209 12.4829 13.7519 13.7519Z" ></path>
  </symbol>
  <symbol xmlns="http://www.w3.org/2000/svg" viewBox="0 0 18 18" id="tick">
    <path fill-rule="evenodd" clip-rule="evenodd" d="M11.6698 5.05011C11.6187 5.07716 11.5573 5.12145 11.5334 5.1485C11.5095 5.17558 10.5791 6.54175 9.46587 8.18444C8.35266 9.82714 7.43692 11.1766 7.43092 11.1833C7.42492 11.1899 6.98142 10.7574 6.44538 10.2221C5.90933 9.68683 5.43711 9.23636 5.39602 9.22109C5.29946 9.1852 5.10977 9.18549 5.01451 9.2217C4.90463 9.26349 4.10732 10.0612 4.0479 10.1889C3.9874 10.3188 3.98432 10.4379 4.03805 10.568C4.0663 10.6365 4.54492 11.1337 5.59779 12.1885C7.26523 13.859 7.2657 13.8594 7.59528 13.8859C7.80361 13.9026 7.9797 13.8297 8.14409 13.6586C8.24171 13.5571 13.0559 6.48756 13.1604 6.2924C13.249 6.12687 13.2351 5.91605 13.1255 5.76212C13.0763 5.69309 12.3899 5.20598 12.1422 5.06437C12.002 4.98422 11.8056 4.9783 11.6698 5.05011Z" ></path>
    <circle cx="9" cy="9" r="8.75" stroke="#363636" stroke-width="0.5"></circle>
  </symbol>
  <symbol xmlns="http://www.w3.org/2000/svg" viewBox="0 0 19 19" id="vk">
    <path d="M12.4165 0H6.5835C1.2635 0 0 1.2635 0 6.5835V12.4165C0 17.7365 1.2635 19 6.5835 19H12.4165C17.7365 19 19 17.7365 19 12.4165V6.5835C19 1.2635 17.7365 0 12.4165 0ZM15.3425 13.5565H13.9555C13.433 13.5565 13.2715 13.129 12.35 12.1885C11.514 11.4 11.153 11.286 10.9535 11.286C10.678 11.286 10.5925 11.362 10.5925 11.761V13.0055C10.5925 13.338 10.488 13.547 9.6045 13.547C8.1415 13.547 6.517 12.654 5.377 11.0105C3.6575 8.5975 3.192 6.7735 3.192 6.4125C3.192 6.213 3.2585 6.023 3.6575 6.023H5.054C5.4055 6.023 5.5385 6.175 5.6715 6.555C6.3555 8.55 7.4955 10.26 7.961 10.26C8.1415 10.26 8.2175 10.1745 8.2175 9.7375V7.695C8.17 6.764 7.6665 6.6785 7.6665 6.346C7.6665 6.175 7.7995 6.023 8.018 6.023H10.1935C10.488 6.023 10.5925 6.175 10.5925 6.536V9.2815C10.5925 9.576 10.716 9.6805 10.811 9.6805C10.982 9.6805 11.134 9.576 11.4475 9.253C12.445 8.1415 13.1575 6.422 13.1575 6.422C13.2525 6.2225 13.4045 6.0325 13.775 6.0325H15.1335C15.5515 6.0325 15.6465 6.251 15.5515 6.5455C15.3805 7.353 13.6895 9.7375 13.7085 9.7375C13.5565 9.975 13.4995 10.0795 13.7085 10.355C13.851 10.5545 14.3355 10.9725 14.6585 11.343C15.2475 12.0175 15.7035 12.578 15.827 12.9675C15.9315 13.357 15.7415 13.5565 15.3425 13.5565Z" ></path>
  </symbol>
</svg>